<?xml version="1.0" encoding="utf-8"?>
<!-- Generator: Adobe Illustrator 27.8.1, SVG Export Plug-In . SVG Version: 6.00 Build 0)  -->
<svg version="1.1" xmlns="http://www.w3.org/2000/svg" xmlns:xlink="http://www.w3.org/1999/xlink" x="0px" y="0px"
	 viewBox="0 0 250 250" style="enable-background:new 0 0 250 250;" xml:space="preserve">
<style type="text/css">
	.st0{display:none;}
	.st1{fill:none;}
	.st2{fill:#D3BC86;}
	.st3{fill:url(#SVGID_1_);}
	.st4{fill:url(#SVGID_00000039121230164654936640000008162963862527761538_);}
	.st5{fill:url(#SVGID_00000127025972546407026490000005413326741702288022_);}
	.st6{fill:url(#SVGID_00000106141521916345833030000006309836610996166578_);}
	.st7{fill:url(#SVGID_00000041292167665278887480000014537288071740356543_);}
	.st8{fill:url(#SVGID_00000158736941003971907910000016944439579113927565_);}
	.st9{fill:url(#SVGID_00000044869767388418679870000009200214709625349262_);}
	.st10{fill:url(#SVGID_00000011734886359389622050000002214850643171422898_);}
	.st11{fill:url(#SVGID_00000011712443462799792120000012908567194136828572_);}
</style>
<g id="Camada_1">
	<rect class="st0" width="250" height="250"/>
</g>
<g id="asset">
	<g>
		<path class="st1" d="M70.62,114.05C70.62,114.05,70.62,114.05,70.62,114.05c-9.13,3.02-14.59,6.82-14.59,10.95v0
			C56.04,120.87,61.49,117.07,70.62,114.05z"/>
		<path class="st1" d="M34.92,125c0-5.78,13.75-11.82,36.9-15.6c0.23-0.74,0.47-1.48,0.73-2.2c-23.08,3.63-39.76,9.75-39.76,17.81
			s16.68,14.18,39.76,17.81c-0.26-0.73-0.51-1.46-0.73-2.2C48.67,136.82,34.92,130.78,34.92,125z"/>
		<path class="st1" d="M215.08,125c0,6.16-15.59,12.61-41.54,16.32c-0.23,0.73-0.48,1.46-0.74,2.17
			c25.46-3.52,44.42-9.9,44.42-18.49c0-8.59-18.96-14.97-44.42-18.49c0.26,0.72,0.51,1.44,0.74,2.17
			C199.49,112.39,215.08,118.84,215.08,125z"/>
		<path class="st1" d="M193.96,125L193.96,125c0-4.8-7.37-9.16-19.33-12.36v0C186.59,115.84,193.96,120.2,193.96,125z"/>
		<path class="st1" d="M70.62,135.95c-0.74-3.54-1.13-7.2-1.13-10.95c0-3.75,0.39-7.42,1.13-10.95
			c-9.13,3.02-14.58,6.82-14.59,10.95C56.04,129.13,61.49,132.93,70.62,135.95z"/>
		<path class="st1" d="M174.64,112.64c0.94,3.97,1.46,8.11,1.46,12.36c0,4.26-0.51,8.39-1.46,12.36
			c11.96-3.2,19.33-7.56,19.33-12.36S186.59,115.84,174.64,112.64z"/>
		<path class="st2" d="M34.92,125c0,5.78,13.75,11.82,36.9,15.6c-0.47-1.52-0.86-3.07-1.19-4.65c-9.13-3.02-14.58-6.82-14.58-10.95
			v0v0c0-4.13,5.46-7.93,14.59-10.95c0.33-1.58,0.73-3.13,1.19-4.65C48.67,113.18,34.92,119.22,34.92,125z"/>
		<path class="st2" d="M193.96,125L193.96,125L193.96,125c0,4.8-7.37,9.16-19.33,12.36c-0.32,1.34-0.68,2.66-1.1,3.95
			c25.95-3.7,41.54-10.15,41.54-16.32c0-6.16-15.59-12.61-41.54-16.32c0.42,1.3,0.78,2.62,1.1,3.95
			C186.59,115.84,193.96,120.2,193.96,125z"/>
		<path class="st2" d="M32.79,125c0-8.06,16.68-14.18,39.76-17.81c0.29-0.81,0.59-1.62,0.92-2.41C41.56,108.77,20,116.32,20,125
			c0,8.68,21.56,16.23,53.47,20.21c-0.33-0.79-0.63-1.6-0.92-2.41C49.47,139.18,32.79,133.06,32.79,125z"/>
		<path class="st2" d="M171.9,104.24c0.32,0.75,0.61,1.51,0.9,2.27c25.46,3.52,44.42,9.9,44.42,18.49
			c0,8.59-18.96,14.97-44.42,18.49c-0.28,0.76-0.58,1.52-0.9,2.27c34.44-3.81,58.1-11.67,58.1-20.76
			C230,115.91,206.34,108.05,171.9,104.24z"/>
		<linearGradient id="SVGID_1_" gradientUnits="userSpaceOnUse" x1="122.6294" y1="64.6253" x2="122.6294" y2="185.3747">
			<stop  offset="0" style="stop-color:#444D52"/>
			<stop  offset="0.1321" style="stop-color:#7C796A"/>
			<stop  offset="0.2896" style="stop-color:#96926F"/>
			<stop  offset="0.445" style="stop-color:#CAB57E"/>
			<stop  offset="0.6008" style="stop-color:#D6BB76"/>
			<stop  offset="0.7331" style="stop-color:#BE9E6F"/>
			<stop  offset="0.8934" style="stop-color:#898467"/>
			<stop  offset="1" style="stop-color:#423E32"/>
		</linearGradient>
		<path class="st3" d="M125,107.18c19.5,0,37.09,2.09,49.64,5.46v0C162.09,109.27,144.5,107.18,125,107.18
			c-22.1,0-41.76,2.69-54.38,6.87c0,0,0,0,0,0C83.24,109.87,102.9,107.18,125,107.18z"/>
		
			<linearGradient id="SVGID_00000178924239998960040060000017004617160466695595_" gradientUnits="userSpaceOnUse" x1="122.6846" y1="64.6253" x2="122.6846" y2="185.3747">
			<stop  offset="0" style="stop-color:#444D52"/>
			<stop  offset="0.1321" style="stop-color:#7C796A"/>
			<stop  offset="0.2896" style="stop-color:#96926F"/>
			<stop  offset="0.445" style="stop-color:#CAB57E"/>
			<stop  offset="0.6008" style="stop-color:#D6BB76"/>
			<stop  offset="0.7331" style="stop-color:#BE9E6F"/>
			<stop  offset="0.8934" style="stop-color:#898467"/>
			<stop  offset="1" style="stop-color:#423E32"/>
		</linearGradient>
		<path style="fill:url(#SVGID_00000178924239998960040060000017004617160466695595_);" d="M73.47,145.21
			c7.96,19.41,27.04,33.09,49.32,33.09c22.07,0,41.01-13.42,49.11-32.54c-14.12,1.56-30.04,2.44-46.9,2.44
			C106.27,148.2,88.7,147.11,73.47,145.21z"/>
		
			<linearGradient id="SVGID_00000134214666977850326780000010475357195931944077_" gradientUnits="userSpaceOnUse" x1="122.678" y1="64.6253" x2="122.678" y2="185.3747">
			<stop  offset="0" style="stop-color:#444D52"/>
			<stop  offset="0.1321" style="stop-color:#7C796A"/>
			<stop  offset="0.2896" style="stop-color:#96926F"/>
			<stop  offset="0.445" style="stop-color:#CAB57E"/>
			<stop  offset="0.6008" style="stop-color:#D6BB76"/>
			<stop  offset="0.7331" style="stop-color:#BE9E6F"/>
			<stop  offset="0.8934" style="stop-color:#898467"/>
			<stop  offset="1" style="stop-color:#423E32"/>
		</linearGradient>
		<path style="fill:url(#SVGID_00000134214666977850326780000010475357195931944077_);" d="M72.55,107.2
			c-0.26,0.73-0.51,1.46-0.73,2.2c14.43-2.36,32.49-3.84,53.18-3.84c18.52,0,34.95,1.19,48.54,3.13c-0.23-0.73-0.48-1.45-0.74-2.17
			c-14.58-2.01-31.29-3.09-47.8-3.09C106.71,103.42,88.17,104.74,72.55,107.2z"/>
		
			<linearGradient id="SVGID_00000090282714135528192340000013275998637186818694_" gradientUnits="userSpaceOnUse" x1="122.6846" y1="64.6253" x2="122.6846" y2="185.3747">
			<stop  offset="0" style="stop-color:#444D52"/>
			<stop  offset="0.1321" style="stop-color:#7C796A"/>
			<stop  offset="0.2896" style="stop-color:#96926F"/>
			<stop  offset="0.445" style="stop-color:#CAB57E"/>
			<stop  offset="0.6008" style="stop-color:#D6BB76"/>
			<stop  offset="0.7331" style="stop-color:#BE9E6F"/>
			<stop  offset="0.8934" style="stop-color:#898467"/>
			<stop  offset="1" style="stop-color:#423E32"/>
		</linearGradient>
		<path style="fill:url(#SVGID_00000090282714135528192340000013275998637186818694_);" d="M171.9,104.24
			c-8.09-19.12-27.03-32.54-49.11-32.54c-22.28,0-41.36,13.68-49.32,33.09c15.23-1.9,32.8-2.99,51.53-2.99
			C141.86,101.8,157.78,102.68,171.9,104.24z"/>
		
			<linearGradient id="SVGID_00000099620378239918598910000000860129673482451862_" gradientUnits="userSpaceOnUse" x1="122.678" y1="64.6253" x2="122.678" y2="185.3747">
			<stop  offset="0" style="stop-color:#444D52"/>
			<stop  offset="0.1321" style="stop-color:#7C796A"/>
			<stop  offset="0.2896" style="stop-color:#96926F"/>
			<stop  offset="0.445" style="stop-color:#CAB57E"/>
			<stop  offset="0.6008" style="stop-color:#D6BB76"/>
			<stop  offset="0.7331" style="stop-color:#BE9E6F"/>
			<stop  offset="0.8934" style="stop-color:#898467"/>
			<stop  offset="1" style="stop-color:#423E32"/>
		</linearGradient>
		<path style="fill:url(#SVGID_00000099620378239918598910000000860129673482451862_);" d="M125,144.44
			c-20.69,0-38.76-1.49-53.18-3.84c0.23,0.74,0.47,1.48,0.73,2.2c15.62,2.46,34.16,3.77,52.45,3.77c16.51,0,33.21-1.08,47.8-3.09
			c0.26-0.72,0.51-1.44,0.74-2.17C159.95,143.26,143.52,144.44,125,144.44z"/>
		
			<linearGradient id="SVGID_00000169525117071899850870000001945508068867348096_" gradientUnits="userSpaceOnUse" x1="122.7924" y1="64.6253" x2="122.7924" y2="185.3747">
			<stop  offset="0" style="stop-color:#444D52"/>
			<stop  offset="0.1321" style="stop-color:#7C796A"/>
			<stop  offset="0.2896" style="stop-color:#96926F"/>
			<stop  offset="0.445" style="stop-color:#CAB57E"/>
			<stop  offset="0.6008" style="stop-color:#D6BB76"/>
			<stop  offset="0.7331" style="stop-color:#BE9E6F"/>
			<stop  offset="0.8934" style="stop-color:#898467"/>
			<stop  offset="1" style="stop-color:#423E32"/>
		</linearGradient>
		<path style="fill:url(#SVGID_00000169525117071899850870000001945508068867348096_);" d="M174.64,112.64
			c-12.54-3.36-30.14-5.46-49.64-5.46c-22.1,0-41.76,2.69-54.38,6.87c-0.74,3.54-1.13,7.2-1.13,10.95c0,3.75,0.39,7.42,1.13,10.95
			c12.62,4.18,32.28,6.87,54.38,6.87c19.5,0,37.09-2.09,49.64-5.46c0.94-3.97,1.46-8.11,1.46-12.36
			C176.09,120.74,175.58,116.61,174.64,112.64z"/>
		<path class="st2" d="M125,142.82c-22.1,0-41.76-2.69-54.38-6.87c0.33,1.58,0.73,3.13,1.19,4.65c14.43,2.36,32.49,3.84,53.18,3.84
			c18.52,0,34.95-1.19,48.54-3.13c0.42-1.3,0.78-2.62,1.1-3.95C162.09,140.73,144.5,142.82,125,142.82z"/>
		
			<linearGradient id="SVGID_00000132076854128017076230000015124924054665426331_" gradientUnits="userSpaceOnUse" x1="122.6293" y1="64.6253" x2="122.6293" y2="185.3747">
			<stop  offset="0" style="stop-color:#444D52"/>
			<stop  offset="0.1321" style="stop-color:#7C796A"/>
			<stop  offset="0.2896" style="stop-color:#96926F"/>
			<stop  offset="0.445" style="stop-color:#CAB57E"/>
			<stop  offset="0.6008" style="stop-color:#D6BB76"/>
			<stop  offset="0.7331" style="stop-color:#BE9E6F"/>
			<stop  offset="0.8934" style="stop-color:#898467"/>
			<stop  offset="1" style="stop-color:#423E32"/>
		</linearGradient>
		<path style="fill:url(#SVGID_00000132076854128017076230000015124924054665426331_);" d="M125,142.82
			c-22.1,0-41.76-2.69-54.38-6.87c0.33,1.58,0.73,3.13,1.19,4.65c14.43,2.36,32.49,3.84,53.18,3.84c18.52,0,34.95-1.19,48.54-3.13
			c0.42-1.3,0.78-2.62,1.1-3.95C162.09,140.73,144.5,142.82,125,142.82z"/>
		<path class="st2" d="M125,107.18c19.5,0,37.09,2.09,49.64,5.46c-0.32-1.34-0.68-2.66-1.1-3.95c-13.59-1.94-30.02-3.13-48.54-3.13
			c-20.69,0-38.76,1.49-53.18,3.84c-0.47,1.52-0.86,3.07-1.19,4.65C83.24,109.87,102.9,107.18,125,107.18z"/>
		<path class="st2" d="M174.64,137.36C174.64,137.36,174.64,137.36,174.64,137.36c-12.54,3.36-30.14,5.46-49.64,5.46
			c-22.1,0-41.76-2.69-54.38-6.87c0,0,0,0,0,0c12.62,4.18,32.28,6.87,54.38,6.87C144.5,142.82,162.09,140.73,174.64,137.36z"/>
		
			<linearGradient id="SVGID_00000183952888642208980180000005063173290827264675_" gradientUnits="userSpaceOnUse" x1="122.6293" y1="64.6253" x2="122.6293" y2="185.3747">
			<stop  offset="0" style="stop-color:#444D52"/>
			<stop  offset="0.1321" style="stop-color:#7C796A"/>
			<stop  offset="0.2896" style="stop-color:#96926F"/>
			<stop  offset="0.445" style="stop-color:#CAB57E"/>
			<stop  offset="0.6008" style="stop-color:#D6BB76"/>
			<stop  offset="0.7331" style="stop-color:#BE9E6F"/>
			<stop  offset="0.8934" style="stop-color:#898467"/>
			<stop  offset="1" style="stop-color:#423E32"/>
		</linearGradient>
		<path style="fill:url(#SVGID_00000183952888642208980180000005063173290827264675_);" d="M174.64,137.36
			C174.64,137.36,174.64,137.36,174.64,137.36c-12.54,3.36-30.14,5.46-49.64,5.46c-22.1,0-41.76-2.69-54.38-6.87c0,0,0,0,0,0
			c12.62,4.18,32.28,6.87,54.38,6.87C144.5,142.82,162.09,140.73,174.64,137.36z"/>
		<path class="st2" d="M125,103.42c16.51,0,33.21,1.08,47.8,3.09c-0.28-0.77-0.58-1.52-0.9-2.27c-14.12-1.56-30.04-2.44-46.9-2.44
			c-18.73,0-36.3,1.09-51.53,2.99c-0.33,0.79-0.63,1.6-0.92,2.41C88.17,104.74,106.71,103.42,125,103.42z"/>
		<path class="st2" d="M125,146.58c-18.29,0-36.83-1.32-52.45-3.77c0.29,0.81,0.59,1.61,0.92,2.41c15.23,1.9,32.8,2.99,51.53,2.99
			c16.86,0,32.78-0.88,46.9-2.44c0.32-0.75,0.61-1.51,0.9-2.27C158.21,145.5,141.51,146.58,125,146.58z"/>
		
			<linearGradient id="SVGID_00000175302457749347566880000013092425382693637564_" gradientUnits="userSpaceOnUse" x1="122.6722" y1="64.6253" x2="122.6722" y2="185.3747">
			<stop  offset="0" style="stop-color:#444D52"/>
			<stop  offset="0.1321" style="stop-color:#7C796A"/>
			<stop  offset="0.2896" style="stop-color:#96926F"/>
			<stop  offset="0.445" style="stop-color:#CAB57E"/>
			<stop  offset="0.6008" style="stop-color:#D6BB76"/>
			<stop  offset="0.7331" style="stop-color:#BE9E6F"/>
			<stop  offset="0.8934" style="stop-color:#898467"/>
			<stop  offset="1" style="stop-color:#423E32"/>
		</linearGradient>
		<path style="fill:url(#SVGID_00000175302457749347566880000013092425382693637564_);" d="M125,146.58
			c-18.29,0-36.83-1.32-52.45-3.77c0.29,0.81,0.59,1.61,0.92,2.41c15.23,1.9,32.8,2.99,51.53,2.99c16.86,0,32.78-0.88,46.9-2.44
			c0.32-0.75,0.61-1.51,0.9-2.27C158.21,145.5,141.51,146.58,125,146.58z"/>
	</g>
</g>
</svg>
