<?xml version="1.0" encoding="utf-8"?>
<!-- Generator: Adobe Illustrator 27.8.1, SVG Export Plug-In . SVG Version: 6.00 Build 0)  -->
<svg version="1.1" xmlns="http://www.w3.org/2000/svg" xmlns:xlink="http://www.w3.org/1999/xlink" x="0px" y="0px"
	 viewBox="0 0 250 250" style="enable-background:new 0 0 250 250;" xml:space="preserve">
<style type="text/css">
	.st0{display:none;}
	.st1{fill:none;}
	.st2{fill:url(#SVGID_1_);}
	.st3{fill:url(#SVGID_00000121247328547055026770000002830891497771200438_);}
	.st4{fill:#FFFFFF;}
</style>
<g id="Camada_1">
	<rect class="st0" width="250" height="250"/>
</g>
<g id="asset">
	<g>
		<path class="st1" d="M175.13,108.88c0.41,1.28,0.77,2.58,1.08,3.9v0c0.93,3.92,1.44,8.01,1.44,12.21c0,4.21-0.51,8.29-1.44,12.21
			c0,0,0,0,0,0c-0.31,1.32-0.67,2.62-1.08,3.9c-0.23,0.72-0.47,1.44-0.73,2.14c-0.08,0.23-0.18,0.45-0.27,0.68
			c33.13-3.95,53.33-11.63,53.33-18.95s-20.2-15-53.33-18.94c0.09,0.23,0.18,0.45,0.27,0.68
			C174.66,107.44,174.9,108.16,175.13,108.88z"/>
		<path class="st1" d="M74.64,140.41c-0.46-1.5-0.85-3.03-1.18-4.59c0,0,0,0,0,0c-0.73-3.49-1.12-7.11-1.12-10.82
			c0-3.71,0.39-7.33,1.12-10.82c0,0,0,0,0,0c0.32-1.56,0.72-3.09,1.18-4.59c0.22-0.73,0.47-1.46,0.72-2.18
			c0.16-0.46,0.34-0.91,0.52-1.36C42.74,110,22.54,117.68,22.54,125s20.2,15,53.34,18.95c-0.17-0.45-0.36-0.9-0.52-1.36
			C75.11,141.87,74.87,141.15,74.64,140.41z"/>
		<linearGradient id="SVGID_1_" gradientUnits="userSpaceOnUse" x1="125.0098" y1="72.3449" x2="125.0098" y2="177.6554">
			<stop  offset="0" style="stop-color:#1B7EA1"/>
			<stop  offset="0.1203" style="stop-color:#0AEFFF"/>
			<stop  offset="0.258" style="stop-color:#03A9D7"/>
			<stop  offset="0.4049" style="stop-color:#0698C2"/>
			<stop  offset="0.5631" style="stop-color:#0985AB"/>
			<stop  offset="0.704" style="stop-color:#0F7CA9"/>
			<stop  offset="0.8546" style="stop-color:#055474"/>
			<stop  offset="1" style="stop-color:#0C2D5D"/>
		</linearGradient>
		<path class="st2" d="M76.99,146.54c8.24,18.33,26.61,31.12,48.01,31.12c21.4,0,39.8-12.78,48.03-31.12
			c-15.01,1.74-31.61,2.66-48.03,2.66C108.58,149.19,91.99,148.27,76.99,146.54z"/>
		
			<linearGradient id="SVGID_00000090989995300204988900000009409017570991589510_" gradientUnits="userSpaceOnUse" x1="125.0002" y1="72.3447" x2="125.0002" y2="177.6552">
			<stop  offset="0" style="stop-color:#1B7EA1"/>
			<stop  offset="0.1203" style="stop-color:#0AEFFF"/>
			<stop  offset="0.258" style="stop-color:#03A9D7"/>
			<stop  offset="0.4049" style="stop-color:#0698C2"/>
			<stop  offset="0.5631" style="stop-color:#0985AB"/>
			<stop  offset="0.704" style="stop-color:#0F7CA9"/>
			<stop  offset="0.8546" style="stop-color:#055474"/>
			<stop  offset="1" style="stop-color:#0C2D5D"/>
		</linearGradient>
		<path style="fill:url(#SVGID_00000090989995300204988900000009409017570991589510_);" d="M176.22,112.79L176.22,112.79
			c-0.31-1.32-0.67-2.62-1.08-3.9c-0.23-0.72-0.47-1.44-0.73-2.14c-0.28-0.76-0.57-1.5-0.89-2.24c-8-18.89-26.71-32.15-48.51-32.15
			c-22.01,0-40.86,13.51-48.73,32.69c-0.32,0.78-0.63,1.58-0.91,2.38c-0.26,0.72-0.5,1.44-0.72,2.18c-0.46,1.5-0.85,3.03-1.18,4.59
			c0,0,0,0,0,0c-0.73,3.49-1.12,7.11-1.12,10.82c0,3.71,0.39,7.33,1.12,10.82c0,0,0,0,0,0c0.33,1.56,0.72,3.09,1.18,4.59
			c0.22,0.73,0.47,1.46,0.72,2.18c0.28,0.8,0.59,1.6,0.91,2.38c7.87,19.18,26.71,32.69,48.73,32.69c21.81,0,40.52-13.26,48.51-32.15
			c0.31-0.74,0.61-1.49,0.88-2.24c0.26-0.71,0.5-1.42,0.73-2.14c0.41-1.28,0.77-2.58,1.08-3.9c0,0,0,0,0,0
			c0.93-3.92,1.44-8.01,1.44-12.21S177.15,116.71,176.22,112.79z"/>
		<path class="st4" d="M75.88,143.95C42.74,140,22.54,132.32,22.54,125s20.2-15,53.34-18.95c0.13-0.34,0.25-0.69,0.39-1.02
			c0.22-0.53,0.48-1.04,0.71-1.57C44.83,107.18,20,114.67,20,125s24.83,17.82,56.99,21.54c-0.24-0.52-0.49-1.04-0.71-1.57
			C76.14,144.63,76.02,144.29,75.88,143.95z"/>
		<path class="st4" d="M230,125c0-10.32-24.82-17.81-56.97-21.53c0.15,0.35,0.33,0.68,0.48,1.03c0.22,0.51,0.42,1.04,0.62,1.56
			c33.13,3.95,53.33,11.62,53.33,18.94s-20.2,15-53.33,18.95c-0.2,0.52-0.4,1.05-0.62,1.56c-0.15,0.35-0.32,0.68-0.48,1.03
			C205.18,142.81,230,135.32,230,125z"/>
		<path class="st4" d="M174.13,143.95c-14.19,1.69-30.75,2.7-49.13,2.7c-18.38,0-34.93-1.01-49.12-2.7
			c0.13,0.34,0.25,0.69,0.39,1.02c0.22,0.53,0.48,1.04,0.71,1.57c15,1.74,31.59,2.66,48.01,2.66c16.43,0,33.02-0.92,48.03-2.66
			c0.15-0.35,0.33-0.68,0.48-1.03C173.73,144.99,173.93,144.47,174.13,143.95z"/>
	</g>
</g>
</svg>
